<?xml version="1.0" standalone="no"?>
<!DOCTYPE svg PUBLIC "-//W3C//DTD SVG 20010904//EN"
 "http://www.w3.org/TR/2001/REC-SVG-20010904/DTD/svg10.dtd">
<svg version="1.0" xmlns="http://www.w3.org/2000/svg"
 width="300.000000pt" height="111.000000pt" viewBox="0 0 300.000000 111.000000"
 preserveAspectRatio="xMidYMid meet">
<metadata>
Created by potrace 1.10, written by Peter Selinger 2001-2011
</metadata>
<g transform="translate(0.000000,111.000000) scale(0.100000,-0.100000)"
fill="#000000" stroke="none">
<path d="M2605 893 c-4 -21 -9 -50 -11 -64 -5 -25 -3 -26 37 -26 32 0 47 -6
61 -23 22 -27 23 -39 2 -69 -15 -20 -23 -23 -65 -19 -33 4 -50 1 -53 -8 -6
-16 15 -24 65 -24 53 0 78 14 95 55 24 58 -12 115 -72 115 -32 0 -34 2 -34 35
l0 35 55 0 c42 0 55 3 55 15 0 12 -14 15 -65 15 l-64 0 -6 -37z"/>
<path d="M96 784 c-20 -20 -20 -48 0 -68 23 -23 51 -20 70 9 15 23 15 27 0 50
-19 29 -47 32 -70 9z m52 -28 c6 -29 -15 -43 -35 -24 -14 14 -14 20 -3 33 16
19 34 15 38 -9z"/>
<path d="M938 789 c-25 -14 -24 -65 1 -79 31 -16 49 -12 67 15 15 23 15 27 0
50 -17 26 -40 31 -68 14z m52 -39 c0 -10 -6 -20 -12 -23 -21 -7 -38 4 -38 23
0 10 6 20 13 23 20 7 37 -4 37 -23z"/>
<path d="M818 708 c-19 -36 -23 -59 -23 -133 0 -74 4 -97 23 -132 12 -24 29
-43 37 -43 19 0 19 2 -7 47 -19 32 -23 53 -23 128 0 75 4 96 23 128 26 45 26
47 7 47 -8 0 -25 -19 -37 -42z"/>
<path d="M1980 745 c0 -3 9 -24 21 -47 40 -79 35 -163 -16 -280 -5 -13 -3 -18
7 -18 8 0 25 23 39 52 34 72 34 183 1 251 -13 26 -30 47 -38 47 -8 0 -14 -2
-14 -5z"/>
<path d="M263 721 c-108 -67 -80 -244 42 -267 48 -9 105 3 105 22 0 12 -8 14
-44 9 -112 -17 -177 105 -101 192 20 24 31 28 82 29 43 0 58 4 58 15 0 24
-103 24 -142 0z"/>
<path d="M1060 594 c0 -133 1 -145 18 -142 14 3 17 15 17 67 l1 64 54 1 c41 1
55 5 55 15 0 12 -13 14 -59 12 -51 -2 -58 0 -52 14 3 9 6 32 6 51 l0 34 55 0
c42 0 55 3 55 15 0 12 -15 15 -75 15 l-75 0 0 -146z"/>
<path d="M1588 723 c-10 -2 -18 -13 -18 -24 0 -16 3 -18 19 -9 43 22 91 6 91
-31 0 -22 -19 -37 -53 -41 -38 -6 -35 -19 9 -34 56 -19 71 -56 36 -87 -21 -19
-49 -21 -86 -7 -22 8 -26 7 -26 -10 0 -22 53 -37 94 -26 70 17 94 91 43 129
-25 19 -25 20 -7 36 29 26 33 55 9 84 -20 27 -60 34 -111 20z"/>
<path d="M1803 720 c-13 -5 -23 -16 -23 -25 0 -17 25 -21 35 -5 9 14 58 13 73
-2 31 -31 0 -100 -82 -177 -20 -19 -36 -40 -36 -45 0 -7 32 -11 87 -10 68 1
88 5 88 15 0 11 -14 14 -57 12 -32 -1 -58 1 -58 4 0 3 22 30 49 58 60 64 74
112 44 153 -22 29 -78 39 -120 22z"/>
<path d="M2186 648 c4 -7 21 -30 37 -51 l29 -37 -36 -50 c-42 -58 -42 -60 -16
-60 12 0 28 15 42 40 13 22 25 40 28 40 3 0 16 -17 29 -38 13 -21 32 -39 42
-39 26 -2 24 2 -15 58 l-35 48 35 45 c40 52 41 56 15 56 -13 0 -29 -15 -44
-41 l-25 -41 -23 41 c-17 30 -29 41 -46 41 -17 0 -22 -4 -17 -12z"/>
<path d="M523 617 c-3 -5 -3 -11 0 -13 10 -10 221 -6 225 5 4 12 -218 20 -225
8z"/>
<path d="M1330 565 c0 -12 11 -14 52 -12 73 4 77 27 4 27 -43 0 -56 -3 -56
-15z"/>
<path d="M2420 555 c0 -13 33 -15 235 -15 129 0 238 0 243 -1 4 0 8 7 10 15 3
14 -25 16 -242 16 -212 0 -246 -2 -246 -15z"/>
<path d="M525 530 c-10 -17 17 -21 120 -18 68 2 100 7 103 16 5 15 -213 18
-223 2z"/>
<path d="M2645 433 c-52 -13 -82 -71 -63 -125 16 -45 72 -63 119 -38 23 13 24
8 4 -30 -18 -34 -43 -50 -79 -50 -27 0 -43 -17 -30 -30 16 -16 93 11 119 42
82 97 34 255 -70 231z m55 -43 c38 -38 14 -110 -37 -110 -22 0 -53 39 -53 65
0 28 32 65 55 65 8 0 24 -9 35 -20z"/>
</g>
</svg>
